<svg xmlns="http://www.w3.org/2000/svg" width="31.65" height="32.064" viewBox="0 0 31.65 32.064">
  <g id="pin-map-fill" transform="translate(0 0)">
    <path id="Caminho_48" data-name="Caminho 48" d="M6.132,11.4a.985.985,0,0,1,.791-.4h4.945a1,1,0,0,1,0,2H7.418L2.967,19.016H28.683L24.232,13H19.781a1,1,0,0,1,0-2h4.945a.985.985,0,0,1,.791.4l5.934,8.016a1.013,1.013,0,0,1,.093,1.049.988.988,0,0,1-.885.554H.989A.988.988,0,0,1,.1,20.466,1.013,1.013,0,0,1,.2,19.417Z" transform="translate(0 11.044)" fill="#fff" fill-rule="evenodd"/>
    <path id="Caminho_49" data-name="Caminho 49" d="M4,8.016a7.909,7.909,0,0,1,15.8-.668,7.991,7.991,0,0,1-6.9,8.622V27.054a.989.989,0,1,1-1.978,0V15.972A7.981,7.981,0,0,1,4,8.014Z" transform="translate(3.913 0)" fill="#fff" fill-rule="evenodd"/>
  </g>
</svg>
