<svg id="instagram" xmlns="http://www.w3.org/2000/svg" width="25.31" height="25.31" viewBox="0 0 25.31 25.31">
  <path id="Caminho_113" data-name="Caminho 113" d="M392.4,94.739h0Z" transform="translate(-367.091 -69.429)"/>
  <path id="Caminho_114" data-name="Caminho 114" d="M149.832,145.8a4.028,4.028,0,1,0,4.028,4.028A4.032,4.032,0,0,0,149.832,145.8Z" transform="translate(-137.177 -137.177)" fill="#fff"/>
  <path id="Caminho_115" data-name="Caminho 115" d="M18.371,0H6.938A6.946,6.946,0,0,0,0,6.938V18.371A6.946,6.946,0,0,0,6.938,25.31H18.371a6.946,6.946,0,0,0,6.938-6.938V6.938A6.946,6.946,0,0,0,18.371,0ZM12.655,19.6A6.942,6.942,0,1,1,19.6,12.655,6.95,6.95,0,0,1,12.655,19.6Zm7.357-12.19A2.109,2.109,0,1,1,22.121,5.3,2.111,2.111,0,0,1,20.012,7.407Z" fill="#fff"/>
</svg>
