<svg xmlns="http://www.w3.org/2000/svg" width="25.31" height="25.31" viewBox="0 0 25.31 25.31">
  <path id="linkedin" d="M0,1.813A1.836,1.836,0,0,1,1.859,0H23.451A1.836,1.836,0,0,1,25.31,1.813V23.5a1.836,1.836,0,0,1-1.859,1.813H1.859A1.836,1.836,0,0,1,0,23.5ZM7.819,21.187V9.758h-3.8V21.187ZM5.921,8.2a1.98,1.98,0,1,0,.025-3.948A1.98,1.98,0,1,0,5.9,8.2Zm7.764,12.99V14.8a2.579,2.579,0,0,1,.127-.927,2.078,2.078,0,0,1,1.949-1.389c1.375,0,1.924,1.047,1.924,2.585v6.114h3.8V14.632c0-3.512-1.873-5.144-4.372-5.144a3.774,3.774,0,0,0-3.425,1.887v.04h-.025l.025-.04V9.758h-3.8c.047,1.072,0,11.429,0,11.429Z" fill="#fff"/>
</svg>
