<svg id="logo" xmlns="http://www.w3.org/2000/svg" xmlns:xlink="http://www.w3.org/1999/xlink" width="530.541" height="247.268" viewBox="0 0 530.541 247.268">
  <defs>
    <clipPath id="clip-path">
      <rect id="Retângulo_14" data-name="Retângulo 14" width="530.541" height="247.268" fill="none"/>
    </clipPath>
  </defs>
  <g id="Grupo_12" data-name="Grupo 12" clip-path="url(#clip-path)">
    <path id="Caminho_86" data-name="Caminho 86" d="M530.814,437.87a9.727,9.727,0,0,1-5.639-2.8c-3.812-4.509-2.79-12.708,3.893-14.612a8.718,8.718,0,0,1,11.014,10.51c-1.05,4.252-2.354,6.437-6.777,6.9-.263.028-.4,0-1.358,0Zm4.958-9.068a6.292,6.292,0,0,0-.526-2.868c-.7-2.444-4.386-3.3-6.222-1.554-2.139,2.039-2.026,7.2.209,9.174a3.4,3.4,0,0,0,3.454.745c1.944-.581,2.838-1.762,3.086-5.5" transform="translate(-237.363 -190.671)" fill="#fff"/>
    <path id="Caminho_87" data-name="Caminho 87" d="M710.225,436.9a8.374,8.374,0,0,1-4.663-9.148c.592-4.131,2.129-6.214,6.221-7.313,5.813-1.561,10.742,2.313,10.737,8.272,0,5.717-1.7,8.532-7.31,9.118a9.726,9.726,0,0,1-4.986-.929m-.178-8.042c0,.377-.026.756,0,1.13.2,2.488,1.931,4.456,3.912,4.468,2.509.015,3.643-1.344,4.095-4.285a16.022,16.022,0,0,0-.106-3.422c-.089-1.681-1.936-3.174-3.672-3.263-2.572-.133-4.192,1.937-4.233,5.371" transform="translate(-320.186 -190.671)" fill="#fff"/>
    <path id="Caminho_88" data-name="Caminho 88" d="M410.8,437.947a15.056,15.056,0,0,1-3.306-.723c-1.431-.414-2.347-.98-2-2.661a9.019,9.019,0,0,0,.015-1.639c1.4.469,2.639.853,3.857,1.3a6.512,6.512,0,0,0,3.794.026,1.406,1.406,0,0,0,1.254-1.386,1.582,1.582,0,0,0-1.141-1.65c-1.375-.332-2.738-.718-4.1-1.106a5.179,5.179,0,0,1-4.014-4.88c.067-2.056,2.328-4.275,4.634-4.691a10.623,10.623,0,0,1,4.734-.01c3.76.976,3.128.434,2.959,4.075a31.519,31.519,0,0,0-5.6-1.056c-1.3-.029-2.418.448-2.511,1.655-.089,1.162,1.1,1.568,2.2,1.777a20.827,20.827,0,0,1,4.774,1.251,3.175,3.175,0,0,1,2.092,2.807c.241,3.761-.427,5.429-5.044,6.915a13.468,13.468,0,0,1-2.6-.007" transform="translate(-183.891 -190.747)" fill="#fff"/>
    <path id="Caminho_89" data-name="Caminho 89" d="M205.361,438.082a9.391,9.391,0,0,1-2.085-.311c-1.207-.311-2.416-.617-3.615-.956-1.79-.506-.99-2.176-.932-3.061.086-1.313,1.3-.305,1.86-.091,1.869.722,3.645,1.3,5.716.658.992-.31,1.389-.686,1.329-1.644a1.545,1.545,0,0,0-1.409-1.485,22.757,22.757,0,0,1-4.72-1.333c-1.685-.793-3.53-2.1-3.251-5.223.15-1.681,1.724-2.944,3.361-3.6,2.8-1.111,5.687-.516,8.451.1,1.284.285.532,1.874.505,2.82-.028.962-1.108.529-1.5.375a10.529,10.529,0,0,0-4.707-.654,1.719,1.719,0,0,0-1.554,1.281c-.226.96.439,1.362,1.169,1.765a13.606,13.606,0,0,0,3.865,1.006c4.171.911,4.09,2.857,3.956,5.973-.086,2-1.988,3.457-4.794,4.205a5.658,5.658,0,0,1-1.644.174" transform="translate(-89.97 -190.817)" fill="#fff"/>
    <path id="Caminho_90" data-name="Caminho 90" d="M250.116,438.215a11.778,11.778,0,0,1-1.918-.309c-2.885-.984-3.576-.969-3.248-4.6,1.883.515,3.577,1.7,5.64,1.517a12.059,12.059,0,0,0,1.8-.328,1.782,1.782,0,0,0,1.564-1.676c.008-.88-.952-1.21-1.649-1.379a23.626,23.626,0,0,1-4.554-1.232c-2.294-1.074-3.742-3.413-3.294-5.238a5.125,5.125,0,0,1,5.425-4.106c1.968.087,3.448-.064,5.451,1.1,1.479.86,1.115,1.224,1.121,2.15.007,1.009-1.1.55-1.614.37a11.04,11.04,0,0,0-3.985-.645c-1.118.03-2.057.387-2.188,1.57-.133,1.2,1,1.51,1.836,1.8,1.081.383,2.251.511,3.371.789,3.242.805,4.014,3.178,3.834,5.689-.153,2.132-1.881,3.322-4.58,4.146a8.7,8.7,0,0,1-3.009.379" transform="translate(-110.914 -191.016)" fill="#fff"/>
    <path id="Caminho_91" data-name="Caminho 91" d="M599.767,437.988a11.836,11.836,0,0,1-3.318-.564c-1.633-.533-2.282-1.268-1.986-2.914a8.022,8.022,0,0,0,.009-1.271c2.027.46,3.743,1.724,5.85,1.53a14.313,14.313,0,0,0,1.972-.434c.887-.207.881-.939.875-1.65-.007-.875-.617-1.174-1.32-1.346a19.938,19.938,0,0,1-5.062-1.495c-1.6-.879-2.966-3.192-2.7-4.589a5.247,5.247,0,0,1,4.531-4.468,21.365,21.365,0,0,1,6.729.362c1.78.472.644,1.89.759,2.825.131,1.069-1,.632-1.4.5a11.889,11.889,0,0,0-4.547-.7,1.832,1.832,0,0,0-1.825,1.335c-.277,1.013.479,1.5,1.3,1.761,1.271.4,2.568.713,3.859,1.043,3.275.837,4,1.914,3.818,5.686-.108,2.216-1.82,3.756-4.547,4.157a18.267,18.267,0,0,1-3,.226" transform="translate(-269.627 -190.942)" fill="#fff"/>
    <path id="Caminho_92" data-name="Caminho 92" d="M497.667,437.284c-3.537-1.55-5.181-4.232-5.529-8.028a7.791,7.791,0,0,1,1.716-5.313,6.577,6.577,0,0,1,4.355-2.977c2.562-.469,5.17-.851,7.624.464,1.638.879.22,2.393.952,3.649-5.441-1.954-7.6-1.76-9.192.685-1.236,1.9-1.076,5.545.315,7.151,1.924,2.223,4.566,2.326,8.443.329.635,3.326.121,4.4-3.24,4.741a9.623,9.623,0,0,1-5.444-.7" transform="translate(-223.356 -190.868)" fill="#fff"/>
    <path id="Caminho_93" data-name="Caminho 93" d="M667.844,196.968a16.418,16.418,0,0,1,1.676-4.305c2.692-6.417,5.18-12.906,6.28-19.853a57.525,57.525,0,0,0,1.082-10.361c-.283-11.8-5.183-21.112-14.966-27.833-7.349-5.049-15.627-7.774-24.166-9.883a172.383,172.383,0,0,0-21.1-3.708c-5.142-.609-10.328-.955-15.513-1.265-12.549-.749-25.1-1.1-37.665-.925-4.536.064-9.092-.074-13.6.317-4.275.371-8.539.051-12.8.327-6.572.426-13.157.475-19.73.788-5.251.25-10.507.449-15.75.766-5.569.337-11.148.372-16.7.762-3.011.212-6.1-.195-8.991.454-2.37.532-4.845-.529-7.129.893-.874.544-2.123-.35-3.273-.327-10.037.193-20.06.888-30.1.827a3.878,3.878,0,0,1-2.063-.227c2.643-.465,5.095-.928,7.56-1.31a4.277,4.277,0,0,0,2.233-.828c.141-.119.371-.33.455-.288,2.187,1.09,4.168-1.354,6.337-.362.109.049.247.177.317.146,3.322-1.5,6.938-.6,10.383-1.292,4.794-.966,9.653-1.691,14.519-2.191,3.33-.342,6.593-1.14,9.945-1.286a2.831,2.831,0,0,0,1.748-.458c.981-.993,2.053-.924,3.308-.877,4.441.167,8.716-1.105,13.054-1.785,5.941-.93,11.855-2.064,17.739-3.309,9.934-2.1,19.845-4.294,29.669-6.9,8.8-2.332,17.518-4.884,26.117-7.846,17.92-6.174,35.15-13.812,50.814-24.62,12.267-8.464,22.972-18.527,30.943-31.267a85.585,85.585,0,0,0,9.764-22.352A67.58,67.58,0,0,0,670.856,1c.014-.338-.19-.8.307-.962s.822.219,1.143.507c2.018,1.807,4.056,3.593,6.037,5.439C692.2,18.89,704.479,33.066,713.731,49.7a113.379,113.379,0,0,1,11.453,29.971,78.781,78.781,0,0,1,1.685,12.865,80.1,80.1,0,0,1,.324,8.061,92.686,92.686,0,0,1-3.249,21.911,109.45,109.45,0,0,1-4.862,13.939,124.658,124.658,0,0,1-16.88,27.435,189.924,189.924,0,0,1-29.466,29.2c-1.553,1.259-3.129,2.49-4.891,3.889" transform="translate(-196.677 0)" fill="#f38d0a"/>
    <path id="Caminho_94" data-name="Caminho 94" d="M53.025,306.32c-.274-2.239,9.274-46.008,9.423-48.079.076-1.05.507-1.5,1.647-1.487,5.6.053,11.21.024,16.852.024-.987,4.74-13.538,66.984-14.38,72.293-.408,2.572-2.468,1.848-3.521,1.789-5.643-.318-11.28,0-16.916-.1a1.553,1.553,0,0,1-1.714-1.268c-3-9.126-14.551-43.667-15.164-45.368-.188-.523-.11-1.261-.8-1.241-.637.018-1.026.576-1.165,1.269-.581,2.89-9,42.827-9.052,45.542-.017.839-.452,1.047-1.206,1.044-5.291-.015-10.582-.046-15.872.018-1.416.017-1.193-.891-1.056-1.612.64-3.362,13.088-65.829,13.8-68.641.946-3.737.988-3.727,4.961-3.727,5.228,0,10.456.03,15.683-.024a1.7,1.7,0,0,1,1.984,1.4c2.834,8.8,13.367,40.227,15.579,47.215.1.307-.011.8.916.948" transform="translate(0 -116.534)" fill="#fff"/>
    <path id="Caminho_95" data-name="Caminho 95" d="M619.492,274.993c-2.364-1.006-4.333-2.446-6.62-3.3a66.533,66.533,0,0,0-10.584-2.953c-3.6-.705-12.542-.476-17.53,1.488a22.753,22.753,0,0,0-9.59,6.646,32.344,32.344,0,0,0-6.716,12.962,40.094,40.094,0,0,0-1.345,12.234c.529,8.24,5.948,13.968,14.54,14.8a35.386,35.386,0,0,0,12.48-.711c1.406-.366,1.92-.766,2.161-2.324.638-4.148,1.669-8.235,2.576-12.5-3.617,0-7.075.014-10.533-.019-.414,0-1.1.369-1.209-.438-.061-.467,1.964-8.569,2.214-9.769.546-2.618.935-3.06,3.323-2.844,5.894.533,11.792.106,17.687.233,3.018.064,6.038.011,9.231.011-2.008,9.844-4.006,19.555-5.957,29.274-.326,1.624-.145,3.31-.808,4.921a3.285,3.285,0,0,1-1.9,2.051,81.475,81.475,0,0,1-20.3,5.6,71.165,71.165,0,0,1-17.776.169,51.78,51.78,0,0,1-10.255-2.518c-2.061-.671-3.821-2.37-5.608-3.748a26.536,26.536,0,0,1-8.211-10.848,22.1,22.1,0,0,1-1.73-8,54.117,54.117,0,0,1,1.089-13.678,51.323,51.323,0,0,1,8.944-19.791,44,44,0,0,1,13.537-11.381,50.43,50.43,0,0,1,19.381-5.957,53.261,53.261,0,0,1,13.524.157c2.809.389,5.751.449,8.381,1.352,3.085,1.059,6.421,1.424,9.284,3.231.919.579,1.236,1.117,1.061,2.011-.885,4.51-1.814,9.012-2.75,13.635" transform="translate(-248.272 -115.398)" fill="#fff"/>
    <path id="Caminho_96" data-name="Caminho 96" d="M192.911,256.78c3.023,0,6.047.027,9.069-.012,1.37-.018,2.317-.194,2.507,1.9.2,2.235,11.921,69.182,11.936,69.241.678,2.779.643,2.826-2.154,2.826-5.039,0-10.077-.033-15.115.022-1.349.015-1.752-.406-1.918-1.8-.436-3.652-1.188-7.267-1.475-10.943-.092-1.175-.973-.762-1.558-.766-5.227-.029-23.24.006-27.018-.034a1.785,1.785,0,0,0-1.9,1.1c-1.92,3.684-3.994,7.288-5.933,10.963a2.381,2.381,0,0,1-2.468,1.5c-5.289-.086-10.58-.047-15.87-.028-1.2,0-1.971.162-.981-1.534,6.485-11.117,39.11-68.236,40.874-71.513a1.652,1.652,0,0,1,1.8-.917q5.1.008,10.2,0m-3.7,18.059a8.481,8.481,0,0,0-.878,1.144c-3.457,6.819-7.387,13.383-10.914,20.16-1.228,2.359-3.12,4.478-3.346,7.336,6.034,0,12.019.012,18-.021.5,0,1.56.417,1.357-.668-.521-2.783-.81-5.59-1.184-8.39-.544-4.078-1.236-8.137-1.781-12.216a60.969,60.969,0,0,0-1.257-7.346" transform="translate(-63.353 -116.535)" fill="#fff"/>
    <path id="Caminho_97" data-name="Caminho 97" d="M679.234,330.735c1.711-3.082,39.366-69.545,41.891-73.2a1.415,1.415,0,0,1,1.422-.748c6.805-.007,13.61.015,20.415-.025.977-.006,1.225.323,1.378,1.256.546,3.322,11.072,67.693,12.233,71.729.3,1.043-.37.992-1.032.991-3.813,0-15.094-.032-16.92.011-.916.021-1.495-.365-1.513-1.241-.057-2.731-1.783-10.244-1.543-11.491.229-1.189-.886-.762-1.451-.765-6.238-.029-24.384-.014-27.22-.021-.633,0-1.188-.022-1.57.691-2.12,3.953-4.317,7.865-6.408,11.833a1.528,1.528,0,0,1-1.567.994c-5.917-.023-11.833-.013-18.116-.013m34.191-27.255c6.494,0,12.663-.017,18.831.017.962.005,1.2-.35,1.07-1.228-.534-3.661-3.028-20.979-3.774-25.972-.05-.334.176-.813-.327-.955-.461-.13-.64.264-.841.584-.233.371-13.093,24.014-14.959,27.553" transform="translate(-308.287 -116.537)" fill="#fff"/>
    <path id="Caminho_98" data-name="Caminho 98" d="M472.191,315.475a76.855,76.855,0,0,0-1.928,8.584,30.4,30.4,0,0,0-.877,5.058c-.068,1.594-.872,1.622-2.071,1.62q-20.691-.039-41.383-.014c-2.768,0-5.537.037-8.3.07-.827.01-1.082-.093-.909-1.14.637-3.851,13.741-68.128,14.1-71.359a1.626,1.626,0,0,1,1.862-1.567q24.281.09,48.563.025c1.158,0,1.482.194,1.182,1.489-.815,3.517-1.479,7.074-2.073,10.636-.281,1.684-.784,2.435-2.77,2.406-9.446-.14-18.9-.031-28.343-.1-1.518-.01-2.016.518-2.238,1.962-.52,3.391-1.19,6.762-1.885,10.122-.285,1.377.161,1.657,1.487,1.648,8.944-.057,17.888.013,26.832-.07,1.516-.014,1.824.414,1.527,1.778-.838,3.855-1.651,7.716-2.4,11.59-.22,1.138-.849,1.219-1.81,1.216-9.007-.031-18.015.007-27.021-.045-1.388-.008-1.836.163-2.129,1.806-.525,2.935-1.253,5.862-1.911,8.788-.452,2.008-.8,4.037-1.224,6.181h19.712q5.48,0,10.96,0c1.028,0,2.083.158,3.05-.69" transform="translate(-189.115 -116.522)" fill="#fff"/>
    <path id="Caminho_99" data-name="Caminho 99" d="M312.014,310.457c2.555-4.457,28.607-50.78,29.627-52.7a1.7,1.7,0,0,1,1.769-1.01c5.856.033,11.711.017,17.759.017-.64,1.9-36.516,64.01-40.117,70.905-1.418,2.715-3.145,3.206-5.88,3.11-5.724-.2-11.46-.116-17.19-.022-1.431.023-1.769-.642-1.956-1.789-.8-4.911-11.276-68.019-12.034-70.557-.309-1.036-.184-1.708,1.293-1.684,5.54.092,11.083.056,16.625.018.937-.006,1.241.225,1.369,1.222.527,4.107,8.025,50.69,8.3,52.433l.438.054" transform="translate(-128.834 -116.523)" fill="#fff"/>
    <path id="Caminho_100" data-name="Caminho 100" d="M341.986,429.63a38.066,38.066,0,0,0,3.2-7.406c.345-1.111.927-1.335,1.981-1.334,4.294.006,4.294-.026,4.294,4.321,0,3.588-.034,7.175.022,10.761.016,1.064-.124,1.561-1.4,1.54-2.763-.046-2.765.038-2.765-2.763,0-2.819,0-5.638-.281-8.551-.908,2.134-1.808,4.272-2.726,6.4-.432,1-.74,1.934-2.274,1.91-1.492-.023-1.67-.919-2.073-1.9a38.259,38.259,0,0,0-2.936-5.927c0,2.822.031,5.645-.02,8.467-.014.757.473,1.92-.37,2.2a8.752,8.752,0,0,1-3.366.073c-.6-.05-.382-.7-.383-1.094-.014-4.657.014-9.315-.028-13.972-.009-.913.268-1.278,1.168-1.143a2.366,2.366,0,0,0,.377,0c4.1-.054,4.1-.057,5.682,3.726.617,1.477,1.2,2.968,1.893,4.685" transform="translate(-151.075 -191.031)" fill="#fff"/>
    <path id="Caminho_101" data-name="Caminho 101" d="M570.826,431.487c0-2.93.056-5.861-.027-8.788-.034-1.2.25-1.614,1.527-1.578,2.631.076,2.633,0,2.633,2.7,0,4.089-.038,8.179.026,12.267.017,1.087-.359,1.228-1.362,1.369-2.748.388-4.308-.622-5.35-3.218a38.3,38.3,0,0,0-4.173-7.249v2.557c0,1.761.046,3.524-.02,5.283-.031.84.481,2.106-.305,2.432a5.328,5.328,0,0,1-3.324.041,1.945,1.945,0,0,1-.956-2.186c.906-4.147.411-8.308.275-12.466-.036-1.1.165-1.726,1.534-1.857,2.441-.233,4.024.3,5.024,2.85a75.57,75.57,0,0,0,4.142,7.889l.358-.051" transform="translate(-253.92 -190.968)" fill="#fff"/>
    <path id="Caminho_102" data-name="Caminho 102" d="M753.184,429.609c2.465,2,3.288,4.836,4.625,7.693-1.236,0-2.286-.08-3.318.024a1.5,1.5,0,0,1-1.7-1.038,20.626,20.626,0,0,0-2.222-4.113,2.474,2.474,0,0,0-2.678-.9c-1.07.242-.356,1.259-.524,1.909a4.658,4.658,0,0,0-.016,1.129c0,3.139-.514,3.526-3.667,3.012-.739-.12-.731-.489-.73-1.013q.006-7.271-.006-14.542c0-.676.144-1.013.929-1.051,2.234-.109,4.469-.062,6.708-.2a5.014,5.014,0,0,1,5.228,5.392c-.044,1.824-1.222,2.745-2.627,3.7m-6.147-4.093c.185,1.389-.446,2.775,1.508,2.732,2.185-.047,2.6-.437,2.745-2.413.135-1.9-1.118-1.658-2.289-1.782-1.449-.153-2.346.128-1.963,1.462" transform="translate(-337.204 -190.857)" fill="#fff"/>
    <path id="Caminho_103" data-name="Caminho 103" d="M639.821,427.041c-.143,1.862.209,4.023-.494,6.183-.72,2.213-1.859,3.737-4.192,4.383-4.3,1.191-8.071,0-9.113-3.04a28.53,28.53,0,0,1-.545-3.37c-.218-3.132-.08-6.288-.108-9.434-.009-.98-.308-.965,1.307-.991,1.777.026,2.552-.1,2.861.336.71,1,.223,2.422.252,3.662.056,2.453.007,4.909.055,7.363a2.564,2.564,0,0,0,2.526,2.618c1.488-.131,2.566-.49,2.839-2.479a81.822,81.822,0,0,0,.254-9.918c.025-1.474.715-1.665,1.886-1.563,1.945.17,2.96.976,2.5,3.129a16.62,16.62,0,0,0-.032,3.122" transform="translate(-283.827 -190.975)" fill="#fff"/>
    <path id="Caminho_104" data-name="Caminho 104" d="M379.687,420.754c2.564-.053,2.923.69,3.528,2.449,1.415,4.116,2.965,8.186,4.528,12.249.526,1.369.694,2.086-1.27,2.024-1.656-.051-2.964-.095-3.149-2.117-.072-.776-.65-.81-1.248-.807-1.071.007-2.146.063-3.211-.013a3.256,3.256,0,0,0-3.581,2.63c-.161.812-3.306.737-3.92.156-.317-.3-.118-.676.011-1.021,1.668-4.452,3.426-8.874,4.954-13.374.632-1.863.781-2.1,3.359-2.177m-2.077,10.633c1.176,0,2.242-.025,3.307.008.768.023,1.028-.19.721-.981-.645-1.667-1.229-3.358-1.9-5.214a40.356,40.356,0,0,0-2.127,6.187" transform="translate(-168.475 -190.968)" fill="#fff"/>
    <path id="Caminho_105" data-name="Caminho 105" d="M787.072,437.725c1.686-4.524,3.246-8.778,4.859-13.012,1.246-3.268,1.277-3.206,4.834-3.272a1.875,1.875,0,0,1,2.207,1.549c1.493,4.409,3.182,8.752,4.863,13.094.486,1.256.4,1.686-1.13,1.692-1.767.007-3.228-.084-3.431-2.259-.074-.791-.655-.631-1.119-.643-1.069-.026-2.151.088-3.207-.031-1.693-.19-3,.076-3.209,2.08-.083.792-.6.818-1.208.807-1.067-.02-2.135-.005-3.459-.005m6.436-6.05c1.354,0,2.42-.018,3.485.007.545.013.947-.184.716-.734-.684-1.625-.753-3.516-2.091-5.049l-2.109,5.776" transform="translate(-357.232 -191.281)" fill="#fff"/>
    <path id="Caminho_106" data-name="Caminho 106" d="M304.239,429.292c0-2.33.043-4.661-.019-6.99-.028-1.048.278-1.436,1.379-1.413,3.085.063,6.172-.017,9.258.023,1.276-.023,1.106,1.583,1.039,2.549-.043.621.088.744-.883.77-1.7.046-3.406.091-5.1-.013-1.167-.072-1.388.415-1.285,1.413.083.818-.307,1.805,1.211,1.678,1.5-.126,3.026.053,4.531-.05,1.436-.1,1.11.866,1.069,1.6s.525,1.9-1.083,1.789a30.57,30.57,0,0,0-3.777,0c-.637.036-1.629-.432-1.849.346a7.722,7.722,0,0,0,0,2.993c.073.565.72.348,1.123.353,1.637.022,3.276.043,4.912-.005.792-.023,1.23.189,1.066,1.04-.157.812.539,2.17-.943,2.223-3.271.116-6.549.042-9.824.033-.982,0-.824-.748-.826-1.356-.008-2.33,0-4.66,0-6.99" transform="translate(-138.077 -191.031)" fill="#fff"/>
    <path id="Caminho_107" data-name="Caminho 107" d="M451.36,429.3c0-2.327.035-4.654-.017-6.979-.022-.981.139-1.478,1.312-1.445,2.953.084,5.914.109,8.866,0,1.663-.063,1.158,1.013,1.248,1.854.107,1,0,1.675-1.335,1.539-1.307-.133-2.651.088-3.956-.059-1.577-.177-2.1.337-1.938,1.923.09.868.247,1.208,1.17,1.164,1.506-.072,3.024.068,4.525-.043,1.56-.116,1.115.945,1.141,1.725.029.834.292,1.816-1.2,1.676-1.247-.117-2.528.1-3.768-.054-1.591-.193-1.81.508-1.823,1.892-.014,1.435.3,2.047,1.857,1.892,1.432-.144,2.9.086,4.333-.062,1.495-.155,1.4.682,1.412,1.69.015,1.054-.017,1.729-1.444,1.671-3.013-.124-6.037-.085-9.054-.013-1.094.026-1.38-.343-1.348-1.385.069-2.324.021-4.653.021-6.979" transform="translate(-204.85 -191.022)" fill="#fff"/>
    <path id="Caminho_108" data-name="Caminho 108" d="M682.856,420.9c2.2,0,4.4.062,6.6-.021,1.588-.059,1.045,1.049,1.092,1.8s.326,1.772-1.082,1.554a1.039,1.039,0,0,0-.189,0c-1.31.04-3.106-.428-3.809.246-.931.891-.284,2.712-.313,4.13-.052,2.45-.063,4.9.007,7.355.031,1.079-.151,1.548-1.407,1.536-3.029-.029-3.03.046-3.03-3.068,0-2.955-.046-5.911.025-8.865.025-1.061-.27-1.465-1.349-1.351-.808.085-1.646-.076-2.448.037-1.526.214-2.105-.253-1.971-1.887.09-1.087.235-1.556,1.459-1.495,2.132.107,4.274.03,6.413.03" transform="translate(-306.35 -191.021)" fill="#fff"/>
    <path id="Caminho_109" data-name="Caminho 109" d="M277.746,430.693c0-1.634-.1-3.275.03-4.9.109-1.388-.431-1.768-1.7-1.605a10.978,10.978,0,0,1-1.88.031c-2.491.063-2.073-.594-2.073-2.172,0-1.544.553-1.2,1.8-1.2,3.348,0,5.862-.122,8.784.016.94.044,1.885.006,2.828.007,2.033,0,2.025.287,2.084,2.725-.032.42.087.682-.286.7-.251.012-.765,0-1.015.014a33.93,33.93,0,0,0-4,.155c-.433.348-.256,2.74-.282,4.165-.045,2.45-.069,4.9.013,7.351.038,1.114-.2,1.505-1.421,1.465a14.5,14.5,0,0,1-1.5,0c-1.352.042-1.448-.4-1.4-1.476.08-1.756.021-3.518.021-5.277" transform="translate(-123.499 -190.99)" fill="#fff"/>
    <path id="Caminho_110" data-name="Caminho 110" d="M659.274,429.181c0-2.136.112-4.28-.036-6.406-.115-1.644.521-2.124,2.017-1.9a4.013,4.013,0,0,0,1.129,0c1.133-.157,1.356.395,1.338,1.412-.056,3.077-.02,6.157-.02,9.236a8.194,8.194,0,0,0,.011,1.13c.149,1.06.371,1.914,1.859,1.716,1.42-.189,2.89.031,4.329-.06,1.49-.093,1.019.959.983,1.633-.034.636.647,1.721-.9,1.694-3.2-.058-6.41-.042-9.614,0-.982.012-1.119-.476-1.108-1.288.032-2.387.011-4.775.011-7.162" transform="translate(-299.205 -191.001)" fill="#fff"/>
    <path id="Caminho_111" data-name="Caminho 111" d="M779.366,429.382c0,2.389-.065,4.78.045,7.164.028.6-.122.814-.561.834a28.421,28.421,0,0,1-3.4,0c-.887-.066-.553-.856-.555-1.345-.026-4.154-.009-8.31-.021-12.465a10.724,10.724,0,0,1-.085-2.038c.082-.411,1.458-.719,1.634-.692.91.139,2.22-.469,2.653.31.459.827.193,2.07.2,3.133.019,1.7,0,3.4,0,5.1h.079" transform="translate(-351.639 -190.965)" fill="#fff"/>
    <path id="Caminho_112" data-name="Caminho 112" d="M230.132,429.14c0-2.264.06-4.53-.025-6.791-.045-1.182.365-1.6,1.508-1.464a5.724,5.724,0,0,0,1.506,0c1.214-.177,1.463.372,1.448,1.491-.058,4.527-.075,9.057.009,13.583.024,1.282-.387,1.672-1.581,1.51a5.848,5.848,0,0,0-1.507,0c-1.063.135-1.42-.259-1.383-1.348.078-2.324.024-4.653.024-6.98" transform="translate(-104.438 -191.014)" fill="#fff"/>
  </g>
</svg>
